<?xml version="1.0" encoding="utf-8"?>
<!-- Generator: Adobe Illustrator 28.0.0, SVG Export Plug-In . SVG Version: 6.00 Build 0)  -->
<svg version="1.1" id="Camada_1" xmlns="http://www.w3.org/2000/svg" xmlns:xlink="http://www.w3.org/1999/xlink" x="0px" y="0px"
	 viewBox="0 0 580 580" style="enable-background:new 0 0 580 580;" xml:space="preserve">
<style type="text/css">
	.st0{fill:#E6E6E6;}
</style>
<rect class="st0" width="580" height="580"/>
<path d="M537.3,251.5c-0.1,0-0.2,0-0.4,0c-9.7,0-17.7,7.8-17.9,17.6l-1.3,65.5l-454.1-3l1.8-138.7c0.1-9.9-7.8-18-17.7-18.1
	c-0.1,0-0.2,0-0.2,0c-9.8,0-17.8,7.9-17.9,17.7l-3.2,249.5c-0.1,9.9,7.8,18,17.7,18.1c0.1,0,0.2,0,0.2,0c9.8,0,17.8-7.9,17.9-17.7
	l1-75l453.9,3l-1.2,61.8c-0.2,9.9,7.7,18.1,17.6,18.3c0.1,0,0.2,0,0.4,0c9.7,0,17.7-7.8,17.9-17.6l3.2-163.1
	C555.1,259.8,547.2,251.7,537.3,251.5L537.3,251.5z"/>
<path d="M255.5,323.6h207.9c23.7,0,43-19.3,43-43c0-23.7-19.3-43-43-43H255.5c-23.7,0-43,19.3-43,43
	C212.5,304.3,231.8,323.6,255.5,323.6L255.5,323.6z"/>
<path d="M161.9,230.5L161.9,230.5c9.6,0,18.7-3.3,25.5-9.3c6.8-6.1,10.6-14.1,10.6-22.7c0-17.7-16.2-32-36.1-32
	c-9.6,0-18.6,3.3-25.4,9.3c-6.8,6.1-10.6,14.1-10.6,22.7C125.9,216.2,142,230.5,161.9,230.5z"/>
<path d="M94.7,319.3h89.6c12.1,0,21.9-9.8,21.9-21.9s-9.8-21.9-21.9-21.9H94.7c-12.1,0-21.9,9.8-21.9,21.9S82.6,319.3,94.7,319.3z"
	/>
</svg>
