<?xml version="1.0" encoding="utf-8"?>
<!-- Generator: Adobe Illustrator 28.0.0, SVG Export Plug-In . SVG Version: 6.00 Build 0)  -->
<svg version="1.1" id="Camada_1" xmlns="http://www.w3.org/2000/svg" xmlns:xlink="http://www.w3.org/1999/xlink" x="0px" y="0px"
	 viewBox="0 0 580 580" style="enable-background:new 0 0 580 580;" xml:space="preserve">
<style type="text/css">
	.st0{fill:#FF0000;}
</style>
<path class="st0" d="M289.9,4.8c-14.4,0-31.1,4.4-43.2,11.3c-1.7,1-4.7,2.7-6.8,3.8s-7.5,4.3-12,7c-12.6,7.4-23.6,12.8-32.1,15.6
	c-16.8,5.6-31.8,7.9-50.3,7.7c-15.8-0.2-23,0.7-28.6,3.5c-4,2-6.3,4.2-8,7.6c-1.3,2.6-1.4,3.2-1.6,6.9c-0.2,4.5,0.3,7.5,1.5,9.8
	c0.8,1.6,3.5,4.9,7.6,9.7c1.4,1.6,3.7,4.3,5.1,6.1s4.5,5.2,6.7,7.8c2.2,2.5,4.7,5.4,5.5,6.4c1.8,2.1,9.2,10.4,12.6,14
	c1.3,1.4,4.6,5,7.4,8.2c3.1,3.5,6.2,6.9,9.3,10.4c5.4-4.5,11-8.8,16.8-12.8c-0.3-0.3-0.5-0.5-0.8-0.9c-5.2-6-12-13.7-15-17.2
	c-7-8-11.9-13.7-14.3-16.4c-1-1.2-3.3-3.7-5-5.7c-1.7-2-3.8-4.4-4.8-5.5s-2.1-2.5-2.7-3.1s-2-2.4-3.3-3.9c-2.1-2.4-2.3-2.8-1.9-3.3
	c0.6-0.6,4.9-0.8,26.2-1.1c20.3-0.2,22.1-0.5,35.9-5.1c7.9-2.6,14.1-5.4,23.8-10.6c8-4.3,17.4-9.5,21.5-11.8
	c10.2-5.7,20.9-10.9,26.2-12.7c4.3-1.4,11.9-3.5,16-4.3c5.6-1.1,15.4-1.2,20.7-0.2c12.3,2.3,28.4,8.6,40,15.6
	c2.6,1.6,5.6,3.3,6.8,3.9s5.4,2.9,9.5,5.2s8.4,4.7,9.4,5.2s4.2,2.3,7,3.9c11.5,6.5,23.6,11.8,34.5,15.1c7.9,2.4,12.1,3,22.8,3.4
	c17.9,0.7,25.7,1.4,26.2,2.2c0.1,0.2-4,4.5-9,9.6c-8.6,8.7-27.1,27-42.1,41.8c6,4.4,11.7,9.1,17.1,14.1c5.8-5.8,11.5-11.5,18.5-18.5
	c23.7-23.7,36.7-36.9,37.6-38.2c2.2-3.4,2.3-4.1,2.3-10.2c0-4.6-0.1-6-0.7-7.9c-0.9-2.8-3.3-5.6-6-6.9c-6.9-3.5-13.4-4.8-27.3-5.7
	c-16.4-1-19.5-1.3-26.6-2.7c-10.9-2.1-21.7-5.8-33.3-11.2c-4.6-2.1-6.5-3.3-19.8-11.2c-4.8-2.9-10.6-6.3-12.8-7.6s-6-3.5-8.4-4.9
	c-12-7.2-27.9-13.5-38.6-15.3C304.8,5.4,297.4,4.9,289.9,4.8L289.9,4.8z M80.4,95.9c-3.6-0.1-7.8,0.4-10.5,1.5
	c-6.9,2.6-9.6,10.7-10.5,31.7c-0.8,17.3-0.9,18.4-4,29.7c-2.8,10.1-5.6,17.4-11.8,30c-4.6,8.9-9.4,18.3-15.4,26.1
	c0,0.7-2.9,6.6-3.8,7.8c-1.2,1.6-9.4,17.5-11.3,22.1c-5.3,12.4-8,23.3-8.9,36c-0.8,11.9,0.6,21.2,5.6,36.7c2,6.3,6.6,16.1,15.6,33.5
	c12.9,24.9,16.2,32.1,20,43.9c5.2,16.2,6.3,23.5,6.1,42.9c-0.1,8.1,0,13.9,0.3,15.6c1.8,11.5,7.7,18,17,18.7
	c2.8,0.2,3.1,0.1,5.7-1.1c3.6-1.7,5.9-3.2,13.2-8.6c5.7-4.1,8.8-6.5,16.3-12.7c1.7-1.4,4.1-3.3,5.2-4.2s3.4-2.8,5-4.3s5-4.5,7.6-6.7
	c8-6.8,12.6-10.8,17.7-15.3c-4.7-5.6-9.1-11.4-13.2-17.5c-0.1,0.1-0.4,0.4-0.5,0.4c-1.3,1.2-3.2,2.8-4.2,3.6s-3.9,3.2-6.3,5.3
	c-6,5.2-12.9,11.1-18,15.3c-4,3.3-5.3,4.5-13.5,11.6c-1.8,1.5-4.8,4.1-6.8,5.7c-1.9,1.6-3.6,3-3.7,3c-0.7,0-0.8-3.2-0.9-17.9
	c0-10.9-0.2-17.5-0.5-19.2c-1.3-7.9-4.4-18-8.2-27c-1.9-4.5-7.8-16.2-17-33.5c-11.4-21.6-14.5-28.4-17.8-39
	c-5.5-18-5.6-29.7-0.4-46.6c3.7-11.9,8.6-22.3,18.8-39.4c15.1-25.3,19.1-33.1,24.9-47.3c6.1-15.3,6.5-17.6,7.9-49
	c0.3-5.9,0.3-6.3,1-6.4c0.6-0.1,8.9,8,35.9,35.2c5.8,5.9,11,11.1,15.8,15.9c4.3-5.7,9-11.2,13.9-16.4c-0.4-0.4-0.7-0.7-1.2-1.2
	c-19.5-19.7-38.6-40.3-59.7-58.2C84.6,96.2,82.6,95.9,80.4,95.9L80.4,95.9z M505.7,107.7c-2.3,0.1-3.7,0.5-4.9,1.3
	c-0.8,0.6-4.9,4.1-9.1,7.9s-8.6,7.8-9.9,9s-5.4,4.9-9.2,8.4c-13.3,12.4-18.4,17-22.5,20.6c-2.3,2-5.3,4.6-6.7,5.9
	c-0.8,0.7-1.8,1.6-2.6,2.3c4.8,5.6,9.3,11.4,13.4,17.5c1.3-1.2,2.9-2.6,3.8-3.5c2.7-2.5,6.7-6.1,8.8-7.9s6.1-5.5,9-8.2
	s6.5-6,8.2-7.5s5.5-4.9,8.4-7.6c11.4-10.5,14.4-13.1,14.8-12.7c0.3,0.3,0.5,6.4,0.6,17.2c0.3,21.3,0.3,21.8,4.8,36.1
	c3.3,10.5,4.7,13.7,18.7,41.8c11.9,24,13.1,26.7,17.8,39.8c5.5,15.4,7,27.5,5,39.3c-1.2,6.9-1.8,9-4,14.8
	c-4.7,12.2-7.7,18.1-20.5,39.5c-3.9,6.5-8,13.4-9.1,15.4s-2.7,4.6-3.4,5.9c-3.8,6.5-11.2,23.2-12.8,28.7c-1.9,6.7-2.9,13.2-3.3,21.1
	c-0.5,12.2-1.2,22.7-1.5,23.8c-0.2,0.5-0.5,1-0.8,1.1c-1,0.2-0.9,0.2-18-16.1c-4.6-4.4-14.9-14.2-23-21.9c-3.8-3.6-6.2-5.9-9.1-8.7
	c-4.2,5.5-8.6,10.8-13.4,15.9c5.3,5.1,10.7,10.4,12.4,12c1.7,1.7,6.3,6.1,10.2,9.9s9.3,8.8,11.8,11.2s9,8.6,14.5,13.7
	c11.4,10.7,10.8,10.4,17.7,10.2c4-0.1,4.5-0.2,6.9-1.4c1.7-0.8,3.2-2,4.5-3.4c4.6-5,6.3-11.4,7.2-26.4c1-17,1.1-17.6,2.5-23.8
	c3.8-17.1,10.4-32.7,22.5-53.1c6.9-11.6,10.4-17.7,12.3-20.7c2.7-4.4,6.9-12.6,8.5-16.2c4.3-10.3,4.9-11.8,6.4-18.1
	c4.5-17.9,4.1-34.6-1.2-52.1c-3.4-11.3-6.3-17.9-20.5-47c-9.1-18.7-8.7-17.7-12.3-27.4c-4.8-12.6-7.3-21.3-9-31.3
	c-0.7-4-0.9-7-1.1-19.3c-0.3-13.9-0.3-14.9-1.3-19.2c-1.8-8.1-3-10.9-5.7-13.4c-2.2-2-4.4-2.7-10.3-3.2
	C508.7,107.7,507,107.6,505.7,107.7L505.7,107.7z M154.2,434.8c-11.7,12.1-26,26.8-34.7,35.5c-19.8,20-21.8,22.3-22.8,28.2
	c-1,5.7,0.1,10.5,3.3,14.2c4.5,5.3,11.7,7.7,24.3,8.2c20.6,0.9,23.6,1.3,35.8,4.8c14.9,4.3,31.9,12.3,52.9,25.2
	c1.9,1.2,4.5,2.7,5.7,3.4c1.3,0.7,4.3,2.5,6.8,4c17.5,10.4,31.8,15.3,48.3,16.6c3.1,0.2,5.8,0.5,5.9,0.6c0.4,0.4,15.4-0.3,19-0.8
	c11.7-1.8,21.7-4.7,31.2-9.2c2.2-1,7.2-3.4,11-5.2s10.6-5.1,15-7.2c9-4.4,19.1-9.2,21.1-9.9c0.7-0.3,2.6-1,4.2-1.7
	c10.8-4.5,19.5-7.1,32-9.6c9.5-1.9,9.3-1.9,22.9-1.8c11.9,0.1,12.6,0,17.5-0.9c5.4-1,11.7-2.9,13.3-3.9c2.2-1.4,3.9-4.1,4.5-7.3
	c0.2-1.2,0.5-4.2,0.7-6.8c0.2-3.8,0.1-5-0.3-6.1c-0.5-1.3-8.1-10.4-13.6-16.2c-3-3.2-11-12.1-21.9-24.5c-4.4-4.9-11-12.3-14.8-16.3
	c-1.3-1.4-2.7-2.9-4.1-4.4c-5.3,4.4-10.8,8.6-16.6,12.5c2.8,3.1,5.1,5.5,7.2,7.7c1.8,1.9,6.5,7,10.4,11.4s8.7,9.5,10.5,11.4
	s4.3,4.6,5.6,6.1s3.6,4.1,5.3,5.9c4.1,4.3,8.1,9.2,7.9,9.6c-0.5,0.9-4,1.1-17.5,1.1c-14.3,0-14.4,0-20.9,1.1
	c-10.4,1.8-22.4,5.3-31.6,9.2c-1.9,0.8-13.1,6.2-24.9,12.1c-29,14.4-27.8,13.8-40.4,18c-7.4,2.4-12.4,3.7-18.4,4.6
	c-3.6,0.5-6.8,0.7-11.6,0.7c-7.2-0.1-7,0-12.9-0.9c-7.8-1.2-23.4-6.8-32-11.6c-3.4-1.9-15.3-8.8-15.8-9.1c-0.8-0.6-22-12.9-27-15.7
	c-7.3-4-18-8.7-26.7-11.5c-9.3-3.1-13.8-3.6-36.7-4.8c-5-0.2-9.2-0.6-9.5-0.8c-0.4-0.2-0.2-0.6,0.6-1.6c1.3-1.6,12.1-12.9,26.5-27.6
	c3.7-3.8,11.5-11.9,17.5-18.1c1.5-1.5,2.6-2.7,4.2-4.3C164.8,444.4,159.3,439.8,154.2,434.8L154.2,434.8z"/>
<path class="st0" d="M295.3,81.9c0.7,4.8,1.2,9.6,2.3,14.2c0.7,3.5,1.7,7,2.8,10.3c98,5.1,175.8,86.1,175.8,185.4
	c0,65.5-33.8,123-85,156c0,0,0,0,0,0c-0.8,0.7-1.7,1.2-2.7,1.7c-0.1,0-0.1,0.1-0.2,0.1c-9.8,6.1-20.2,11.3-31.1,15.5
	c-9,12-19.1,23-30,33.4c98.4-17.4,173.3-103.5,173.3-206.7C500.6,177.6,408.9,84.4,295.3,81.9L295.3,81.9z M259.5,84.1
	C158.5,99.2,80.7,186.6,80.7,291.8c0,107.1,80.6,195.7,184.3,208.3c-13.7-9.3-26.3-20.4-36.6-33.4c-72-25.5-123.4-94.2-123.4-175
	c0-90.5,64.6-165.7,150.2-182.2C256.2,100.9,257.7,92.4,259.5,84.1z M281.3,477.1c-0.9,8.1-1.1,16.2-0.6,24.3
	c1.9,0.1,3.8,0.1,5.7,0.2c2.4-8,4.7-16.1,6.6-24.2c-0.8,0-1.6,0-2.4,0C287.5,477.4,284.4,477.3,281.3,477.1L281.3,477.1z"/>
<path class="st0" d="M198.7,425.1c-27.9-15.7-44.9-52.5-32.4-107.5c8.8-38.6,34.5-86.2,14.8-125.9c23.9,16.5,48.7,55.7,73.7,100
	c1.7-47.9-23.1-79.3-5.3-144.8c12.3,81,61.5,86,86.4,159.7c10.6-34.6,32.7-46,21.9-132.1c108.6,148.3,46.7,201,25,254l7-73.7
	c-34.1,98.4-61.3,116.6-86,138.6c13.8-46.2,19.2-92.4-8.8-138.6c-6.8,75.9-26,60.1-29.8,121.1c-38.3-28.9-46.2-58.6-53.1-107
	C207.1,374.6,198.2,398.3,198.7,425.1L198.7,425.1z"/>
<path class="st0" d="M278.1,71.1c-28.4,115.3,23.4,114.3,52.2,182.1C350.5,148.7,290.1,172.2,278.1,71.1z"/>
</svg>
