<?xml version="1.0" encoding="utf-8"?>
<!-- Generator: Adobe Illustrator 28.0.0, SVG Export Plug-In . SVG Version: 6.00 Build 0)  -->
<svg version="1.1" id="Camada_1" xmlns="http://www.w3.org/2000/svg" xmlns:xlink="http://www.w3.org/1999/xlink" x="0px" y="0px"
	 viewBox="0 0 580 580" style="enable-background:new 0 0 580 580;" xml:space="preserve">
<style type="text/css">
	.st0{fill:#E40D20;stroke:#FCF8D5;stroke-miterlimit:10;}
</style>
<path class="st0" d="M477.8,444.8c0-0.7,0-1.3,0-1.8c-0.1-52-48.1-81.4-73.2-93.2L403,200.4l-70.9-59.7V42.2h-230v495.7h230v-1.2
	c0.4,0,0.8,0,1.2,0c60.2,0,100.9-11.5,124.1-35.1C478.8,479.8,478.1,454.3,477.8,444.8z M294.2,332.5l-73.7,73.7L145,330.7
	l73.7-73.7L294.2,332.5z M145,197.7V90.3h144.1v107.4L145,197.7L145,197.7z M426.2,470.9c-8.3,8.4-31.4,22.2-94.1,22V197.8
	l27.4,23.1l1.6,143.7l0.1,15.5l14.7,5c0.6,0.2,58.1,21.1,58.2,58.1c0,0.8,0,1.8,0.1,2.9C434.4,452.9,434.6,462.4,426.2,470.9
	L426.2,470.9z"/>
</svg>
